<mxfile host="app.diagrams.net" agent="Mozilla/5.0 (Windows NT 10.0; Win64; x64) AppleWebKit/537.36 (KHTML, like Gecko) Chrome/134.0.0.0 Safari/537.36" version="26.0.16">
  <diagram name="PÃ¡gina-1" id="Uxkw0fB-CMjHZEcTfIZ3">
    <mxGraphModel dx="880" dy="468" grid="1" gridSize="10" guides="1" tooltips="1" connect="1" arrows="1" fold="1" page="1" pageScale="1" pageWidth="827" pageHeight="1169" math="0" shadow="0">
      <root>
        <mxCell id="0" />
        <mxCell id="1" parent="0" />
        <mxCell id="rWJO2KBDGa-5CeAuZOha-3" value="" style="edgeStyle=orthogonalEdgeStyle;rounded=0;orthogonalLoop=1;jettySize=auto;html=1;" edge="1" parent="1" source="rWJO2KBDGa-5CeAuZOha-1" target="rWJO2KBDGa-5CeAuZOha-2">
          <mxGeometry relative="1" as="geometry" />
        </mxCell>
        <mxCell id="rWJO2KBDGa-5CeAuZOha-1" value="" style="ellipse;whiteSpace=wrap;html=1;" vertex="1" parent="1">
          <mxGeometry x="60" y="10" width="120" height="80" as="geometry" />
        </mxCell>
        <mxCell id="rWJO2KBDGa-5CeAuZOha-5" value="" style="edgeStyle=orthogonalEdgeStyle;rounded=0;orthogonalLoop=1;jettySize=auto;html=1;" edge="1" parent="1" source="rWJO2KBDGa-5CeAuZOha-2" target="rWJO2KBDGa-5CeAuZOha-4">
          <mxGeometry relative="1" as="geometry" />
        </mxCell>
        <mxCell id="rWJO2KBDGa-5CeAuZOha-2" value="Consigo los elementos" style="whiteSpace=wrap;html=1;" vertex="1" parent="1">
          <mxGeometry x="60" y="160" width="120" height="60" as="geometry" />
        </mxCell>
        <mxCell id="rWJO2KBDGa-5CeAuZOha-10" value="" style="edgeStyle=orthogonalEdgeStyle;rounded=0;orthogonalLoop=1;jettySize=auto;html=1;" edge="1" parent="1" source="rWJO2KBDGa-5CeAuZOha-4" target="rWJO2KBDGa-5CeAuZOha-9">
          <mxGeometry relative="1" as="geometry" />
        </mxCell>
        <mxCell id="rWJO2KBDGa-5CeAuZOha-4" value="aceite o mantequilla" style="rhombus;whiteSpace=wrap;html=1;" vertex="1" parent="1">
          <mxGeometry x="80" y="290" width="80" height="80" as="geometry" />
        </mxCell>
        <mxCell id="rWJO2KBDGa-5CeAuZOha-8" value="" style="edgeStyle=orthogonalEdgeStyle;rounded=0;orthogonalLoop=1;jettySize=auto;html=1;" edge="1" parent="1" source="rWJO2KBDGa-5CeAuZOha-6" target="rWJO2KBDGa-5CeAuZOha-7">
          <mxGeometry relative="1" as="geometry" />
        </mxCell>
        <mxCell id="rWJO2KBDGa-5CeAuZOha-6" value="" style="ellipse;whiteSpace=wrap;html=1;aspect=fixed;" vertex="1" parent="1">
          <mxGeometry x="400" y="40" width="80" height="80" as="geometry" />
        </mxCell>
        <mxCell id="rWJO2KBDGa-5CeAuZOha-7" value="" style="whiteSpace=wrap;html=1;" vertex="1" parent="1">
          <mxGeometry x="380" y="210" width="120" height="60" as="geometry" />
        </mxCell>
        <mxCell id="rWJO2KBDGa-5CeAuZOha-9" value="fin" style="ellipse;whiteSpace=wrap;html=1;" vertex="1" parent="1">
          <mxGeometry x="80" y="450" width="80" height="80" as="geometry" />
        </mxCell>
      </root>
    </mxGraphModel>
  </diagram>
</mxfile>
